<svg xmlns="http://www.w3.org/2000/svg" width="38.000000pt" height="38.000000pt" viewBox="0 0 31.13 23.48"><defs><style>.a{fill:#eeeeee;}</style></defs><title>InventorShims</title><path class="a" d="M7.14,27.41A3.82,3.82,0,0,1,4,26.15a6.32,6.32,0,0,1-1-4V19a3.43,3.43,0,0,0-.46-2A1.79,1.79,0,0,0,1,16.33H.33v-2.4H1a2.6,2.6,0,0,0,.93-.14,1.59,1.59,0,0,0,.63-.45,2,2,0,0,0,.35-.78A5.33,5.33,0,0,0,3,11.43V9.2a9.76,9.76,0,0,1,.24-2.29A4.48,4.48,0,0,1,4,5.26a3.24,3.24,0,0,1,1.29-1,4.91,4.91,0,0,1,1.89-.33H8V6.32H7.36a2.43,2.43,0,0,0-.88.14,1.66,1.66,0,0,0-.67.48,2.11,2.11,0,0,0-.44.86,5.11,5.11,0,0,0-.15,1.34v2.21A8.28,8.28,0,0,1,5.09,13a3.27,3.27,0,0,1-.39,1.12,2,2,0,0,1-.67.7,2.89,2.89,0,0,1-1,.35,2.1,2.1,0,0,1,1.61,1.05A5.72,5.72,0,0,1,5.22,19v3.22a5.22,5.22,0,0,0,.15,1.36,2.2,2.2,0,0,0,.44.88,1.61,1.61,0,0,0,.67.46,2.43,2.43,0,0,0,.88.14H8v2.38Z" transform="translate(-0.33 -3.94)"/><path class="a" d="M24.64,3.94A3.83,3.83,0,0,1,27.78,5.2a6.25,6.25,0,0,1,1,4v2.13a3.34,3.34,0,0,0,.46,1.95,1.74,1.74,0,0,0,1.54.65h.65v2.4h-.65a2.6,2.6,0,0,0-.93.14,1.49,1.49,0,0,0-.62.45,1.87,1.87,0,0,0-.34.78,5.2,5.2,0,0,0-.11,1.13v3.33a9.61,9.61,0,0,1-.24,2.28,4.28,4.28,0,0,1-.74,1.64,3.23,3.23,0,0,1-1.3,1,4.91,4.91,0,0,1-1.89.33h-.85V25h.65a2.41,2.41,0,0,0,.87-.14,1.58,1.58,0,0,0,.68-.47,2.44,2.44,0,0,0,.43-.87,5.11,5.11,0,0,0,.15-1.34V18.92a8.61,8.61,0,0,1,.13-1.63,3.5,3.5,0,0,1,.38-1.12,1.93,1.93,0,0,1,.67-.69,2.67,2.67,0,0,1,.95-.34,2.15,2.15,0,0,1-1.61-1.07,5.86,5.86,0,0,1-.52-2.78V9.18a5.38,5.38,0,0,0-.15-1.38A2.41,2.41,0,0,0,26,6.92a1.67,1.67,0,0,0-.68-.47,2.65,2.65,0,0,0-.87-.13h-.65V3.94Z" transform="translate(-0.33 -3.94)"/><path class="a" d="M10.08,7.62V4H21.84V7.62h-4.1V23.69h4.1V27.3H10.08V23.69h4.1V7.62Z" transform="translate(-0.33 -3.94)"/></svg>